<svg width="17" height="17" viewBox="0 0 17 17" fill="none" xmlns="http://www.w3.org/2000/svg">
<path d="M2.00364 13.1573C2.04959 12.7438 2.07256 12.537 2.13512 12.3438C2.19062 12.1724 2.26904 12.0092 2.36824 11.8588C2.48006 11.6892 2.62715 11.5421 2.92133 11.2479L12.0443 2.12498C12.8267 1.34258 14.0952 1.34258 14.8776 2.12498V2.12498C15.66 2.90738 15.66 4.17591 14.8776 4.95831L5.75466 14.0813C5.46048 14.3754 5.31339 14.5225 5.14382 14.6343C4.99338 14.7335 4.83023 14.812 4.65878 14.8675C4.46554 14.93 4.2588 14.953 3.8453 14.9989L1.77344 15.2291L2.00364 13.1573Z" stroke="#23262A" stroke-width="1.3" stroke-linecap="round" stroke-linejoin="round"/>
</svg>
